<svg width="1440" height="68" viewBox="0 0 1440 68" fill="none" xmlns="http://www.w3.org/2000/svg">
<rect width="1440" height="68" fill="black"/>
<path d="M142.587 39.2085C141.561 45.325 138.253 48.3938 132.66 48.3938C129.223 48.3938 126.576 47.1412 124.676 44.6362C122.776 42.1311 121.837 38.624 121.837 34.0939C121.837 29.4387 122.819 25.8063 124.761 23.1968C126.725 20.5874 129.436 19.2722 132.937 19.2722C138.103 19.2722 141.178 21.9025 142.138 27.1215H154.69C154.157 21.819 151.915 17.6231 148.009 14.5334C144.102 11.4438 139.043 9.89905 132.852 9.89905C125.637 9.89905 119.83 12.1327 115.475 16.6001C114.045 18.0614 112.871 19.6688 111.91 21.4224C111.163 17.9362 109.349 15.2641 106.402 13.4062C102.645 11.0681 97.8636 9.89905 92.0357 9.89905C85.5247 9.89905 80.5081 11.1098 76.9643 13.5105C74.6162 15.0971 73.0578 17.1429 72.2679 19.648C71.6488 18.6877 70.9658 17.7691 70.1972 16.9133C66.0345 12.2371 60.4201 9.89905 53.3754 9.89905C46.5869 9.89905 40.9939 12.1954 36.5964 16.788C32.1988 21.3807 30 27.205 30 34.261C30 41.4422 32.1774 47.2038 36.5537 51.5668C40.9086 55.9299 46.6723 58.101 53.8451 58.101C59.2033 58.101 63.8144 56.7441 67.6996 54.0302C69.4927 52.7777 71.0298 51.2746 72.3106 49.5628C73.3567 51.3581 74.8723 52.8194 76.8577 54.1137C80.9563 56.7649 86.1651 58.0801 92.4839 58.0801C99.1019 58.0801 104.31 56.7023 108.11 53.9258C110.266 52.3393 111.824 50.4396 112.743 48.2059C113.511 49.354 114.408 50.4396 115.411 51.4416C119.744 55.742 125.487 57.8922 132.66 57.8922C138.85 57.8922 143.931 56.243 147.88 52.9447C151.83 49.6463 154.178 45.0536 154.968 39.1667H142.587V39.2085ZM46.3521 21.7356C48.2094 19.9194 50.5576 19.0008 53.3968 19.0008C56.4068 19.0008 58.755 19.9611 60.4414 21.8608C62.1279 23.7813 63.1098 26.2238 63.4301 29.2299H43.0006C43.3635 26.0568 44.4736 23.5517 46.3521 21.7356ZM98.9305 47.9972C97.394 49.02 95.3231 49.5419 92.7401 49.5419C86.5494 49.5419 83.3259 47.7258 81.981 42.653H63.3874C61.5729 47.0577 58.4135 49.2706 53.9091 49.2706C50.4722 49.2706 47.8038 48.2476 45.9252 46.181C44.0253 44.1142 43.0433 41.1291 43.0006 37.1835H76.4093V35.9519C76.4093 35.0124 76.388 34.0939 76.3239 33.1963C76.5161 33.3007 76.7082 33.405 76.9003 33.5094C77.9036 34.0104 78.6935 34.4279 79.2912 34.7411C79.8889 35.0751 80.8496 35.4091 82.1304 35.764C83.4326 36.1189 84.3506 36.3694 84.9269 36.5155C85.5033 36.6616 86.5067 36.8913 87.9583 37.1835C89.4099 37.4758 90.3278 37.6846 90.7548 37.8098C90.9256 37.8724 91.1817 37.9351 91.4806 37.9768C95.2164 38.8118 97.7783 39.5634 99.1657 40.2731C100.553 40.9829 101.236 42.1937 101.236 43.8846C101.236 45.5964 100.468 46.9742 98.9305 47.9972ZM105.57 31.2131C103.713 30.4825 102.133 29.9397 100.831 29.6265C99.5285 29.3134 97.7998 28.9377 95.6433 28.5201C95.3445 28.4575 94.8535 28.374 94.1917 28.2488C90.4559 27.4763 87.8729 26.7875 86.4213 26.1195C84.9696 25.4723 84.2439 24.3241 84.2439 22.675C84.2439 21.2554 84.8843 20.149 86.1438 19.3557C87.4033 18.5625 89.1751 18.1658 91.4806 18.1658C94.1917 18.1658 96.2411 18.646 97.6715 19.5854C99.0804 20.5248 99.9766 22.153 100.34 24.4494H110.522C109.583 27.0171 109.05 29.8353 108.943 32.9249C108.046 32.3195 106.915 31.7559 105.57 31.2131Z" fill="#FF1468"/>
<path d="M247.139 27.1H250.182L253.752 36.382L257.322 27.1H260.348V39H258.495V28.902L254.636 39H252.868L248.992 28.902V39H247.139V27.1ZM262.305 27.1H271.026V28.834H264.158V32.183H270.346V33.917H264.158V37.266H271.145V39H262.305V27.1ZM285.235 27.1H287.326L283.909 32.88L287.751 39H285.541L282.362 33.832H280.696V39H278.843V33.832H277.177L273.998 39H271.788L275.63 32.88L272.213 27.1H274.304L277.211 32.098H278.843V27.1H280.696V32.098H282.328L285.235 27.1ZM291.422 28.834L291.235 33.611C291.167 35.532 291.031 36.654 290.759 37.266H296.012V28.834H291.422ZM289.688 27.1H297.865V37.266H299.293V41.465H297.508V39H289.552V41.465H287.767V37.266H288.362C289.161 37.266 289.331 36.722 289.45 33.492L289.688 27.1ZM298.883 27.1H300.974L304.306 33.322L307.128 27.1H309.151L304.816 36.416C303.796 38.626 303.303 39 301.365 39H301.11V37.266H301.246C302.249 37.266 302.555 37.028 303.082 35.872L303.354 35.26L298.883 27.1ZM313.859 27.1H315.95L319.282 33.322L322.104 27.1H324.127L319.792 36.416C318.772 38.626 318.279 39 316.341 39H316.086V37.266H316.222C317.225 37.266 317.531 37.028 318.058 35.872L318.33 35.26L313.859 27.1ZM329.143 26.93H329.177C332.254 26.93 333.903 28.001 334.158 31.384L332.373 31.435C332.186 29.344 331.353 28.664 329.177 28.664H329.143C326.712 28.664 325.879 29.531 325.879 31.979V34.121C325.879 36.535 326.78 37.436 329.143 37.436H329.177C331.489 37.436 332.322 36.756 332.424 34.495L334.277 34.546C334.124 37.912 332.628 39.17 329.177 39.17H329.143C325.624 39.17 324.026 37.589 324.026 34.121V31.979C324.026 28.494 325.624 26.93 329.143 26.93ZM335.747 27.1H344.927V39H343.074V28.834H337.6V39H335.747V27.1ZM346.879 27.1H355.6V28.834H348.732V32.183H354.92V33.917H348.732V37.266H355.719V39H346.879V27.1ZM356.617 27.1H358.827L361.581 31.554L364.335 27.1H366.545L362.839 32.88L366.8 39H364.556L361.581 34.257L358.606 39H356.362L360.323 32.88L356.617 27.1ZM371.845 28.664C369.55 28.664 368.581 29.633 368.581 31.979V34.121C368.581 36.467 369.55 37.436 371.845 37.436H371.879C374.174 37.436 375.126 36.467 375.126 34.121V31.979C375.126 29.633 374.174 28.664 371.879 28.664H371.845ZM371.845 26.93H371.879C375.279 26.93 376.979 28.613 376.979 31.979V34.121C376.979 37.487 375.279 39.17 371.879 39.17H371.845C368.445 39.17 366.728 37.487 366.728 34.121V31.979C366.728 28.613 368.445 26.93 371.845 26.93ZM378.616 27.1H381.659L385.229 36.382L388.799 27.1H391.825V39H389.972V28.902L386.113 39H384.345L380.469 28.902V39H378.616V27.1ZM399.386 27.1H401.239V36.79L406.186 27.1H408.889V39H407.036V29.31L402.089 39H399.386V27.1ZM416.47 27.1H425.65V39H423.797V28.834H418.323V39H416.47V27.1ZM427.602 27.1H432.991C436 27.1 437.19 28.12 437.19 30.67C437.19 33.22 436 34.24 432.991 34.24H429.455V39H427.602V27.1ZM429.455 32.506H432.889C434.759 32.506 435.337 32.081 435.337 30.67C435.337 29.242 434.776 28.834 432.889 28.834H429.455V32.506ZM443.428 28.664C441.133 28.664 440.164 29.633 440.164 31.979V34.121C440.164 36.467 441.133 37.436 443.428 37.436H443.462C445.757 37.436 446.709 36.467 446.709 34.121V31.979C446.709 29.633 445.757 28.664 443.462 28.664H443.428ZM443.428 26.93H443.462C446.862 26.93 448.562 28.613 448.562 31.979V34.121C448.562 37.487 446.862 39.17 443.462 39.17H443.428C440.028 39.17 438.311 37.487 438.311 34.121V31.979C438.311 28.613 440.028 26.93 443.428 26.93ZM450.198 27.1H455.876C458.494 27.1 459.616 28.035 459.616 30.279V30.313C459.616 31.792 459.14 32.574 457.899 32.88C459.361 33.22 459.956 34.104 459.956 35.702V35.736C459.956 38.014 458.783 39 456.131 39H450.198V27.1ZM452.051 33.9V37.266H456.131C457.593 37.266 458.103 36.858 458.103 35.634V35.6C458.103 34.325 457.576 33.9 456.131 33.9H452.051ZM452.051 28.834V32.166H455.876C457.27 32.166 457.763 31.758 457.763 30.534V30.5C457.763 29.259 457.253 28.834 455.876 28.834H452.051ZM463.975 27.1H466.389L470.401 39H468.463L467.562 36.246H462.802L461.901 39H459.963L463.975 27.1ZM463.363 34.512H467.001L465.182 28.851L463.363 34.512ZM472.437 27.1H480.767V39H478.914V28.834H474.171L473.95 34.189C473.78 38.099 473.151 39.085 470.55 39.085H470.414V37.232H470.482C471.723 37.232 472.046 36.569 472.148 33.934L472.437 27.1ZM487.492 28.664C485.197 28.664 484.228 29.633 484.228 31.979V34.121C484.228 36.467 485.197 37.436 487.492 37.436H487.526C489.821 37.436 490.773 36.467 490.773 34.121V31.979C490.773 29.633 489.821 28.664 487.526 28.664H487.492ZM487.492 26.93H487.526C490.926 26.93 492.626 28.613 492.626 31.979V34.121C492.626 37.487 490.926 39.17 487.526 39.17H487.492C484.092 39.17 482.375 37.487 482.375 34.121V31.979C482.375 28.613 484.092 26.93 487.492 26.93ZM494.262 27.1H497.305L500.875 36.382L504.445 27.1H507.471V39H505.618V28.902L501.759 39H499.991L496.115 28.902V39H494.262V27.1Z" fill="white"/>
<path d="M574.825 28.834L574.638 33.611C574.57 35.532 574.434 36.654 574.162 37.266H579.415V28.834H574.825ZM573.091 27.1H581.268V37.266H582.696V41.465H580.911V39H572.955V41.465H571.17V37.266H571.765C572.564 37.266 572.734 36.722 572.853 33.492L573.091 27.1ZM583.686 27.1H585.539V36.79L590.486 27.1H593.189V39H591.336V29.31L586.389 39H583.686V27.1ZM598.21 27.1H600.624L604.636 39H602.698L601.797 36.246H597.037L596.136 39H594.198L598.21 27.1ZM597.598 34.512H601.236L599.417 28.851L597.598 34.512ZM606.672 27.1H615.002V39H613.149V28.834H608.406L608.185 34.189C608.015 38.099 607.386 39.085 604.785 39.085H604.649V37.232H604.717C605.958 37.232 606.281 36.569 606.383 33.934L606.672 27.1ZM621.727 28.664C619.432 28.664 618.463 29.633 618.463 31.979V34.121C618.463 36.467 619.432 37.436 621.727 37.436H621.761C624.056 37.436 625.008 36.467 625.008 34.121V31.979C625.008 29.633 624.056 28.664 621.761 28.664H621.727ZM621.727 26.93H621.761C625.161 26.93 626.861 28.613 626.861 31.979V34.121C626.861 37.487 625.161 39.17 621.761 39.17H621.727C618.327 39.17 616.61 37.487 616.61 34.121V31.979C616.61 28.613 618.327 26.93 621.727 26.93ZM628.497 27.1H636.657V28.834H630.35V39H628.497V27.1ZM638.118 27.1H639.971V36.79L644.918 27.1H647.621V39H645.768V29.31L640.821 39H638.118V27.1ZM655.202 27.1H664.382V39H662.529V28.834H657.055V39H655.202V27.1ZM671.112 28.664C668.817 28.664 667.848 29.633 667.848 31.979V34.121C667.848 36.467 668.817 37.436 671.112 37.436H671.146C673.441 37.436 674.393 36.467 674.393 34.121V31.979C674.393 29.633 673.441 28.664 671.146 28.664H671.112ZM671.112 26.93H671.146C674.546 26.93 676.246 28.613 676.246 31.979V34.121C676.246 37.487 674.546 39.17 671.146 39.17H671.112C667.712 39.17 665.995 37.487 665.995 34.121V31.979C665.995 28.613 667.712 26.93 671.112 26.93ZM677.882 27.1H679.735V32.098H681.486L685.379 27.1H687.708L683.135 32.846L688.133 39H685.702L681.571 33.832H679.735V39H677.882V27.1ZM692.894 28.664C690.599 28.664 689.63 29.633 689.63 31.979V34.121C689.63 36.467 690.599 37.436 692.894 37.436H692.928C695.223 37.436 696.175 36.467 696.175 34.121V31.979C696.175 29.633 695.223 28.664 692.928 28.664H692.894ZM692.894 26.93H692.928C696.328 26.93 698.028 28.613 698.028 31.979V34.121C698.028 37.487 696.328 39.17 692.928 39.17H692.894C689.494 39.17 687.777 37.487 687.777 34.121V31.979C687.777 28.613 689.494 26.93 692.894 26.93ZM700.469 27.1H708.799V39H706.946V28.834H702.203L701.982 34.189C701.812 38.099 701.183 39.085 698.582 39.085H698.446V37.232H698.514C699.755 37.232 700.078 36.569 700.18 33.934L700.469 27.1ZM710.747 27.1H719.468V28.834H712.6V32.183H718.788V33.917H712.6V37.266H719.587V39H710.747V27.1ZM721.198 27.1H723.051V32.098H728.525V27.1H730.378V39H728.525V33.832H723.051V39H721.198V27.1ZM732.33 27.1H734.183V36.79L739.13 27.1H741.833V39H739.98V29.31L735.033 39H732.33V27.1ZM743.811 27.1H745.664V36.79L750.611 27.1H753.314V39H751.461V29.31L746.514 39H743.811V27.1ZM745.324 23.938L747.007 23.768C747.007 24.482 747.347 24.703 748.435 24.703H748.962C750.05 24.703 750.39 24.482 750.39 23.768L752.073 23.938C751.988 25.553 751.223 26.131 749.217 26.131H748.163C746.157 26.131 745.409 25.553 745.324 23.938Z" fill="white"/>
<path d="M818.139 27.1H819.992V32.098H825.466V27.1H827.319V39H825.466V33.832H819.992V39H818.139V27.1ZM829.271 27.1H837.992V28.834H831.124V32.183H837.312V33.917H831.124V37.266H838.111V39H829.271V27.1ZM839.722 27.1H845.111C848.12 27.1 849.31 28.12 849.31 30.67C849.31 33.22 848.12 34.24 845.111 34.24H841.575V39H839.722V27.1ZM841.575 32.506H845.009C846.879 32.506 847.457 32.081 847.457 30.67C847.457 29.242 846.896 28.834 845.009 28.834H841.575V32.506ZM852.553 27.1H854.967L858.979 39H857.041L856.14 36.246H851.38L850.479 39H848.541L852.553 27.1ZM851.941 34.512H855.579L853.76 28.851L851.941 34.512ZM864.307 26.93H864.341C867.418 26.93 869.067 28.001 869.322 31.384L867.537 31.435C867.35 29.344 866.517 28.664 864.341 28.664H864.307C861.876 28.664 861.043 29.531 861.043 31.979V34.121C861.043 36.535 861.944 37.436 864.307 37.436H864.341C866.653 37.436 867.486 36.756 867.588 34.495L869.441 34.546C869.288 37.912 867.792 39.17 864.341 39.17H864.307C860.788 39.17 859.19 37.589 859.19 34.121V31.979C859.19 28.494 860.788 26.93 864.307 26.93ZM870.911 27.1H872.764V32.098H874.515L878.408 27.1H880.737L876.164 32.846L881.162 39H878.731L874.6 33.832H872.764V39H870.911V27.1ZM882.059 27.1H887.448C890.457 27.1 891.647 28.12 891.647 30.67C891.647 33.22 890.457 34.24 887.448 34.24H883.912V39H882.059V27.1ZM883.912 32.506H887.346C889.216 32.506 889.794 32.081 889.794 30.67C889.794 29.242 889.233 28.834 887.346 28.834H883.912V32.506ZM893.108 39V27.117H894.961V31.877H898.446C901.353 31.877 902.526 32.88 902.526 35.43V35.447C902.526 37.997 901.353 39 898.446 39H893.108ZM904.124 39V27.117H905.977V39H904.124ZM894.961 33.611V37.266H898.344C900.146 37.266 900.673 36.841 900.673 35.447V35.43C900.673 34.019 900.146 33.611 898.344 33.611H894.961ZM907.433 27.1H916.613V28.834H912.958V39H911.105V28.834H907.433V27.1ZM918.062 39V27.117H919.915V31.877H923.4C926.307 31.877 927.48 32.88 927.48 35.43V35.447C927.48 37.997 926.307 39 923.4 39H918.062ZM929.078 39V27.117H930.931V39H929.078ZM919.915 33.611V37.266H923.298C925.1 37.266 925.627 36.841 925.627 35.447V35.43C925.627 34.019 925.1 33.611 923.298 33.611H919.915ZM932.896 27.1H941.617V28.834H934.749V32.183H940.937V33.917H934.749V37.266H941.736V39H932.896V27.1ZM948.026 27.1H957.206V28.834H953.551V39H951.698V28.834H948.026V27.1ZM960.022 27.1H962.436L966.448 39H964.51L963.609 36.246H958.849L957.948 39H956.01L960.022 27.1ZM959.41 34.512H963.048L961.229 28.851L959.41 34.512ZM968.484 27.1H976.814V39H974.961V28.834H970.218L969.997 34.189C969.827 38.099 969.198 39.085 966.597 39.085H966.461V37.232H966.529C967.77 37.232 968.093 36.569 968.195 33.934L968.484 27.1ZM981.805 27.1H984.219L988.231 39H986.293L985.392 36.246H980.632L979.731 39H977.793L981.805 27.1ZM981.193 34.512H984.831L983.012 28.851L981.193 34.512ZM989.213 27.1H991.066V32.098H996.54V27.1H998.393V39H996.54V33.832H991.066V39H989.213V27.1ZM999.835 27.1H1009.02V28.834H1005.36V39H1003.51V28.834H999.835V27.1ZM1010.46 39V27.117H1012.32V31.877H1015.8C1018.71 31.877 1019.88 32.88 1019.88 35.43V35.447C1019.88 37.997 1018.71 39 1015.8 39H1010.46ZM1021.48 39V27.117H1023.33V39H1021.48ZM1012.32 33.611V37.266H1015.7C1017.5 37.266 1018.03 36.841 1018.03 35.447V35.43C1018.03 34.019 1017.5 33.611 1015.7 33.611H1012.32Z" fill="white"/>
<path d="M1100.62 27.1H1102.71L1099.29 32.88L1103.13 39H1100.92L1097.74 33.832H1096.08V39H1094.23V33.832H1092.56L1089.38 39H1087.17L1091.01 32.88L1087.6 27.1H1089.69L1092.59 32.098H1094.23V27.1H1096.08V32.098H1097.71L1100.62 27.1ZM1104.12 27.1H1105.97V36.79L1110.92 27.1H1113.62V39H1111.77V29.31L1106.82 39H1104.12V27.1ZM1120.19 26.93H1120.22C1123.57 26.93 1125.09 28.018 1125.09 30.398C1125.09 31.792 1124.58 32.574 1123.37 32.88C1124.73 33.237 1125.34 34.121 1125.34 35.651C1125.34 38.065 1123.76 39.17 1120.22 39.17H1120.19C1116.48 39.17 1115.23 38.065 1115.09 34.886L1116.94 34.835C1117.06 36.892 1117.71 37.436 1120.19 37.436H1120.22C1122.62 37.436 1123.49 36.926 1123.49 35.549C1123.49 34.291 1122.82 33.849 1120.78 33.849H1118.91V32.115H1120.78C1122.55 32.115 1123.23 31.605 1123.23 30.415C1123.23 29.174 1122.4 28.664 1120.22 28.664H1120.19C1118 28.664 1117.25 29.276 1117.13 31.095L1115.34 31.044C1115.57 28.035 1116.84 26.93 1120.19 26.93ZM1126.75 27.1H1128.6V32.098H1134.08V27.1H1135.93V39H1134.08V33.832H1128.6V39H1126.75V27.1ZM1137.88 27.117H1139.73V31.877H1143.47C1146.38 31.877 1147.55 32.88 1147.55 35.43V35.447C1147.55 37.997 1146.38 39 1143.47 39H1137.88V27.117ZM1139.73 33.611V37.266H1143.37C1145.17 37.266 1145.7 36.841 1145.7 35.447V35.43C1145.7 34.019 1145.17 33.611 1143.37 33.611H1139.73ZM1154.22 27.1H1163.4V39H1161.54V28.834H1156.07V39H1154.22V27.1ZM1170.13 28.664C1167.83 28.664 1166.86 29.633 1166.86 31.979V34.121C1166.86 36.467 1167.83 37.436 1170.13 37.436H1170.16C1172.46 37.436 1173.41 36.467 1173.41 34.121V31.979C1173.41 29.633 1172.46 28.664 1170.16 28.664H1170.13ZM1170.13 26.93H1170.16C1173.56 26.93 1175.26 28.613 1175.26 31.979V34.121C1175.26 37.487 1173.56 39.17 1170.16 39.17H1170.13C1166.73 39.17 1165.01 37.487 1165.01 34.121V31.979C1165.01 28.613 1166.73 26.93 1170.13 26.93ZM1181.67 26.93H1181.71C1184.78 26.93 1186.43 28.001 1186.69 31.384L1184.9 31.435C1184.72 29.344 1183.88 28.664 1181.71 28.664H1181.67C1179.24 28.664 1178.41 29.531 1178.41 31.979V34.121C1178.41 36.535 1179.31 37.436 1181.67 37.436H1181.71C1184.02 37.436 1184.85 36.756 1184.95 34.495L1186.81 34.546C1186.65 37.912 1185.16 39.17 1181.71 39.17H1181.67C1178.15 39.17 1176.56 37.589 1176.56 34.121V31.979C1176.56 28.494 1178.15 26.93 1181.67 26.93ZM1189.08 27.1H1197.41V39H1195.56V28.834H1190.82L1190.6 34.189C1190.43 38.099 1189.8 39.085 1187.2 39.085H1187.06V37.232H1187.13C1188.37 37.232 1188.69 36.569 1188.79 33.934L1189.08 27.1ZM1199.36 27.1H1208.08V28.834H1201.21V32.183H1207.4V33.917H1201.21V37.266H1208.2V39H1199.36V27.1ZM1218.1 28.834L1217.91 33.611C1217.85 35.532 1217.71 36.654 1217.44 37.266H1222.69V28.834H1218.1ZM1216.37 27.1H1224.54V37.266H1225.97V41.465H1224.19V39H1216.23V41.465H1214.45V37.266H1215.04C1215.84 37.266 1216.01 36.722 1216.13 33.492L1216.37 27.1ZM1226.96 27.1H1228.82V36.79L1233.76 27.1H1236.47V39H1234.61V29.31L1229.67 39H1226.96V27.1ZM1238.44 27.1H1247.62V39H1245.77V28.834H1240.3V39H1238.44V27.1ZM1250.63 27.1H1258.96V39H1257.11V28.834H1252.36L1252.14 34.189C1251.97 38.099 1251.34 39.085 1248.74 39.085H1248.61V37.232H1248.67C1249.92 37.232 1250.24 36.569 1250.34 33.934L1250.63 27.1ZM1265.68 28.664C1263.39 28.664 1262.42 29.633 1262.42 31.979V34.121C1262.42 36.467 1263.39 37.436 1265.68 37.436H1265.72C1268.01 37.436 1268.96 36.467 1268.96 34.121V31.979C1268.96 29.633 1268.01 28.664 1265.72 28.664H1265.68ZM1265.68 26.93H1265.72C1269.12 26.93 1270.82 28.613 1270.82 31.979V34.121C1270.82 37.487 1269.12 39.17 1265.72 39.17H1265.68C1262.28 39.17 1260.57 37.487 1260.57 34.121V31.979C1260.57 28.613 1262.28 26.93 1265.68 26.93ZM1272.45 27.1H1275.5L1279.07 36.382L1282.64 27.1H1285.66V39H1283.81V28.902L1279.95 39H1278.18L1274.31 28.902V39H1272.45V27.1ZM1290.66 27.1H1293.08L1297.09 39H1295.15L1294.25 36.246H1289.49L1288.59 39H1286.65L1290.66 27.1ZM1290.05 34.512H1293.69L1291.87 28.851L1290.05 34.512Z" fill="white"/>
<path d="M1365.92 28.664C1363.62 28.664 1362.65 29.633 1362.65 31.979V34.121C1362.65 36.467 1363.62 37.436 1365.92 37.436H1365.95C1368.25 37.436 1369.2 36.467 1369.2 34.121V31.979C1369.2 29.633 1368.25 28.664 1365.95 28.664H1365.92ZM1365.92 26.93H1365.95C1369.35 26.93 1371.05 28.613 1371.05 31.979V34.121C1371.05 37.487 1369.35 39.17 1365.95 39.17H1365.92C1362.52 39.17 1360.8 37.487 1360.8 34.121V31.979C1360.8 28.613 1362.52 26.93 1365.92 26.93ZM1378.12 27.1H1379.98V32.098H1385.45V27.1H1387.3V39H1385.45V33.832H1379.98V39H1378.12V27.1ZM1392.3 27.1H1394.71L1398.72 39H1396.79L1395.89 36.246H1391.13L1390.22 39H1388.29L1392.3 27.1ZM1391.69 34.512H1395.32L1393.51 28.851L1391.69 34.512ZM1404.05 26.93H1404.09C1407.16 26.93 1408.81 28.001 1409.07 31.384L1407.28 31.435C1407.1 29.344 1406.26 28.664 1404.09 28.664H1404.05C1401.62 28.664 1400.79 29.531 1400.79 31.979V34.121C1400.79 36.535 1401.69 37.436 1404.05 37.436H1404.09C1406.4 37.436 1407.23 36.756 1407.33 34.495L1409.19 34.546C1409.03 37.912 1407.54 39.17 1404.09 39.17H1404.05C1400.53 39.17 1398.94 37.589 1398.94 34.121V31.979C1398.94 28.494 1400.53 26.93 1404.05 26.93Z" fill="white"/>
</svg>
